{"title":"End of Watch 2012 DVDRIP XVID AC3 5.1-26K","uid":7818265,"size":1617216796,"categoryP":"video","categoryS":"movies","magnet":"?xt=urn:btih:96e70a5ee170b4e9d5d14bdf1ec69a9726796e9d&amp;dn=End+of+Watch+2012+DVDRIP+XVID+AC3+5.1-26K&amp;tr=udp%3A%2F%2Ftracker.openbittorrent.com%3A80&amp;tr=udp%3A%2F%2Fopen.demonii.com%3A1337&amp;tr=udp%3A%2F%2Ftracker.coppersurfer.tk%3A6969&amp;tr=udp%3A%2F%2Fexodus.desync.com%3A6969","seeders":1,"leechers":0,"uploader":"HeroMaster","files":-1,"time":1352733197,"description":"End.of.Watch.2012.DVDRIP.XVID.AC3.5.1-26K\n &lt;a href=&quot;\nhttp://uk.imdb.com/title/tt1855199/&quot; rel=&quot;nofollow&quot; target=&quot;_NEW&quot;&gt;\nhttp://uk.imdb.com/title/tt1855199/&lt;/a&gt;\n\nPlot:\nTwo young officers are marked for death after confiscating a small cache \nof money and firearms from the members \n\nof a notorious cartel, during a routine traffic stop.\n\nSources - Audio-lum....Thanks :P\n          VIDEO-lum.....Thanks :P\nVideo\nID                                       : 0\nFormat                                   : MPEG-4 Visual\nFormat profile                           : Advanced Simple@L5\nFormat settings, BVOP                    : 2\nFormat settings, QPel                    : No\nFormat settings, GMC                     : No warppoints\nFormat settings, Matrix                  : Default (H.263)\nMuxing mode                              : Packed bitstream\nCodec ID                                 : XVID\nCodec ID/Hint                            : XviD\nDuration                                 : 1h 44mn\nBit rate                                 : 1 665 Kbps\nWidth                                    : 720 pixels\nHeight                                   : 400 pixels\nDisplay aspect ratio                     : 16:9\nFrame rate                               : 25.000 fps\nColor space                              : YUV\nChroma subsampling                       : 4:2:0\nBit depth                                : 8 bits\nScan type                                : Progressive\nCompression mode                         : Lossy\nBits/(Pixel*Frame)                       : 0.231\nStream size                              : 1.21 GiB (81%)\nWriting library                          : XviD 64\n\nAudio\nID                                       : 1\nFormat                                   : AC-3\nFormat/Info                              : Audio Coding 3\nMode extension                           : CM (complete main)\nFormat settings, Endianness              : Big\nCodec ID                                 : 2000\nDuration                                 : 1h 44mn\nBit rate mode                            : Constant\nBit rate                                 : 384 Kbps\nChannel(s)                               : 6 channels\nChannel positions                        : Front: L C R, Side: L R, LFE\nSampling rate                            : 48.0 KHz\nBit depth                                : 16 bits\nCompression mode                         : Lossy\nStream size                              : 286 MiB (19%)\nAlignment                                : Split accross interleaves\nInterleave, duration                     : 5458 ms (136.45 video frames)\n\nNotes -\nenjoy\n\n\nPoster:\n\n &lt;a href=&quot;\nhttp://imgon.net/di-CWUN.jpg&quot; rel=&quot;nofollow&quot; target=&quot;_NEW&quot;&gt;\nhttp://imgon.net/di-CWUN.jpg&lt;/a&gt;\n\n\nScreenshots:\n\n &lt;a href=&quot;\nhttp://imgon.net/di-WBYV.jpg&quot; rel=&quot;nofollow&quot; target=&quot;_NEW&quot;&gt;\nhttp://imgon.net/di-WBYV.jpg&lt;/a&gt;\n\n\nENJOY!","torrent":{"xt":"urn:btih:96e70a5ee170b4e9d5d14bdf1ec69a9726796e9d","amp;dn":"End+of+Watch+2012+DVDRIP+XVID+AC3+5.1-26K","amp;tr":["udp%3A%2F%2Ftracker.openbittorrent.com%3A80","udp%3A%2F%2Fopen.demonii.com%3A1337","udp%3A%2F%2Ftracker.coppersurfer.tk%3A6969","udp%3A%2F%2Fexodus.desync.com%3A6969"],"infoHash":"96e70a5ee170b4e9d5d14bdf1ec69a9726796e9d","infoHashBuffer":{"type":"Buffer","data":[150,231,10,94,225,112,180,233,213,209,75,223,30,198,154,151,38,121,110,157]},"announce":[],"urlList":[]}}